# xmcd
#
# Track frame offsets:
# 150
# 10902
# 21480
# 30950
# 39852
# 50057
# 60927
# 70717
# 81552
# 92587
# 101872
# 113665
#
# Disc length: 1636 seconds
#
#
# Revision: 0
# Processed by: cddbd v1.4PL0 Copyright (c) Steve Scherf et al.
# Submitted via: FreeRIP 2.30 
#
DISCID=9006620c
DTITLE=The Everly Brothers - Classic Masters
DYEAR=2003
DGENRE=Folk/Rock
TTITLE0=Bye Bye Love
TTITLE1=All I Have To Do Is Dream
TTITLE2=Wake Up Little Susie
TTITLE3=Problems
TTITLE4=Bird Dog
TTITLE5=Devoted To You
TTITLE6=Poor Jenny
TTITLE7=('Til) I Kissed You
TTITLE8=Take A Message To Mary
TTITLE9=When Will I Be Loved
TTITLE10=Let It Be Me
TTITLE11=Like Strangers
EXTD=The Right Stuff, Div Capitol Records. 72435-43473-2-0
EXTT0=
EXTT1=
EXTT2=
EXTT3=
EXTT4=
EXTT5=
EXTT6=
EXTT7=
EXTT8=
EXTT9=
EXTT10=
EXTT11=
PLAYORDER=
